<?xml version="1.0" encoding="utf-8"?>
<svg version="1.1" x="0px" y="0px" viewBox="-2035.295 -1680.53 3159.326 2696.051" style="enable-background:new 0 0 64 64;" xmlns="http://www.w3.org/2000/svg">
  <defs/>
  <g transform="matrix(5.646972, 0, 0, 5.368543, -211.600406, -760.964672)" style="">
    <g>
      <path d="M 207.573 54.579 L 207.573 -153.045 C 207.573 -158.612 203.495 -163.16 198.511 -163.16 L -72.217 -163.16 C -77.198 -163.16 -81.281 -158.612 -81.281 -153.045 L -81.281 -101.136 L -126.342 -101.136 C -131.332 -101.136 -135.41 -96.582 -135.41 -91.018 L -135.41 -8.046 L -152.994 -8.046 C -167.23 -8.046 -178.743 5.106 -178.743 21.195 L -178.743 99.911 L -305.672 99.911 C -310.658 99.911 -314.738 104.467 -314.738 110.029 L -314.738 211.211 C -314.738 216.78 -310.658 221.33 -305.672 221.33 L -287.54 221.33 L -287.54 261.807 C -287.54 267.369 -283.463 271.919 -278.474 271.919 L -178.743 271.919 L -178.743 293.272 C -178.743 309.36 -167.23 322.513 -152.994 322.513 L 203.495 322.513 C 217.726 322.513 229.243 309.36 229.243 293.272 L 229.243 83.317 C 229.243 68.748 219.816 56.807 207.573 54.579 Z M -63.151 -142.922 L 189.443 -142.922 L 189.443 54.078 L 153.448 54.078 L 153.448 -91.018 C 153.448 -96.582 149.368 -101.136 144.385 -101.136 L -63.151 -101.136 L -63.151 -142.922 Z M -269.408 251.684 L -269.408 221.33 L -97.144 221.33 C -94.696 221.33 -92.435 220.221 -90.709 218.397 L -73.573 199.279 L -63.963 211.211 L -96.326 251.684 L -269.408 251.684 Z M 211.113 293.272 C 211.113 298.223 207.664 302.275 203.495 302.275 L -152.994 302.275 C -157.164 302.275 -160.616 298.223 -160.616 293.272 L -160.616 271.919 L -92.25 271.919 C -89.622 271.919 -87.171 270.707 -85.452 268.58 L -45.013 217.995 C -42.017 214.147 -42.017 208.282 -45.013 204.432 L -60.699 184.902 L -45.378 167.805 C -41.844 163.859 -41.844 157.385 -45.378 153.439 L -90.709 102.85 C -92.435 101.021 -94.696 99.911 -97.144 99.911 L -160.616 99.911 L -160.616 21.195 C -160.616 16.234 -157.164 12.188 -152.994 12.188 C -152.901 12.188 -126.43 12.085 -126.342 12.188 L -22.076 12.188 C -19.176 12.188 -16.363 14.414 -15.189 17.455 L 0.314 56.807 C 4.393 67.429 13.559 74.316 23.797 74.316 L 203.495 74.316 C 207.755 74.316 211.113 78.256 211.113 83.317 L 211.113 293.272 Z" style="fill: rgb(255, 254, 254);"/>
      <path d="M 169.989 257.466 L 77.772 257.466 C 73.852 257.466 70.677 261.263 70.677 265.952 C 70.677 270.636 73.852 274.433 77.772 274.433 L 169.989 274.433 C 179.284 274.258 179.334 257.651 169.989 257.466 Z" style="fill: rgb(255, 254, 254);"/>
      <desc>Created with Fabric.js 5.2.4</desc>
      <g transform="matrix(1, 0, 0, 1, 67.419847, 44.386265)" id="6bb7c404-f826-4c0f-8acc-a0cf302e3c6c"/>
      <g transform="matrix(1, 0, 0, 1, 67.419847, 44.386265)" id="e0c31d7e-bd84-4b6e-a2d2-b42d2d2ac9b9">
        <rect style="stroke: none; stroke-width: 1; stroke-dasharray: none; stroke-linecap: butt; stroke-dashoffset: 0; stroke-linejoin: miter; stroke-miterlimit: 4; fill-rule: nonzero; opacity: 1; visibility: hidden; fill: rgb(255, 254, 254);" vector-effect="non-scaling-stroke" x="-540" y="-540" width="1080" height="1080" rx="97.23" ry="97.23"/>
      </g>
    </g>
  </g>
</svg>